# xmcd
#
# Track frame offsets:
#	182
#	18922
#	37167
#	53980
#	70767
#	85772
#	129177
#	151305
#	173475
#	190790
#	220500
#
# Disc length: 3379 seconds
#
# Revision: 0
# Processed by: cddbd v1.5.1PL2 Copyright (c) Steve Scherf et al.
# Submitted via: audiograbber 1.83.01
#
DISCID=830d310b
DTITLE=Blues Traveler - Blues Traveler
DYEAR=1990
DGENRE=Blues
TTITLE0=But Anyway
TTITLE1=Gina
TTITLE2=Mulling It Over
TTITLE3=100 Years
TTITLE4=Dropping Some NYC
TTITLE5=Crystal Flame
TTITLE6=Slow Change
TTITLE7=Warmer Days
TTITLE8=Gotta Get Mean
TTITLE9=Alone
TTITLE10=Sweet Talking Hippie
EXTD=
EXTT0=
EXTT1=
EXTT2=
EXTT3=
EXTT4=
EXTT5=
EXTT6=
EXTT7=
EXTT8=
EXTT9=
EXTT10=
PLAYORDER=
